Hanif_Medium_7_5_grf.mot
version=1
nRows=47
nColumns=19
inDegrees=yes
endheader
time	right_ground_force_vx	right_ground_force_vy	right_ground_force_vz	right_ground_force_px	right_ground_force_py	right_ground_force_pz	right_ground_torque_x	right_ground_torque_y	right_ground_torque_z	left_ground_force_vx	left_ground_force_vy	left_ground_force_vz	left_ground_force_px	left_ground_force_py	left_ground_force_pz	left_ground_torque_x	left_ground_torque_y	left_ground_torque_z
0.925000	-2.934080	214.023000	41.380400	0.212193	0.000000	-1.423220	-17.703100	-1.676800	2.429930	0.201056	164.083000	-31.408100	0.194541	0.000000	-0.965311	10.221200	-2.664570	-0.420915
0.930000	-3.521180	218.941000	42.838100	0.214934	0.000000	-1.422170	-18.341400	-1.756140	3.108960	1.857520	165.200000	-31.622800	0.195505	0.000000	-0.964580	10.145900	-2.670710	-0.280373
0.935000	-4.808670	225.186000	43.531100	0.216770	0.000000	-1.421220	-19.075100	-1.907100	3.627610	3.080660	166.146000	-32.716600	0.197295	0.000000	-0.965774	10.385400	-2.666520	0.020209
0.940000	-5.907850	227.597000	44.040200	0.218590	0.000000	-1.421610	-19.194200	-1.840060	4.129810	3.486350	170.227000	-33.967800	0.200384	0.000000	-0.965558	10.599800	-2.614860	0.546311
0.945000	-7.196900	227.219000	44.183600	0.220731	0.000000	-1.421230	-19.248900	-1.898630	4.638060	3.712260	174.052000	-34.796900	0.202904	0.000000	-0.968419	11.335900	-2.510090	0.978852
0.950000	-8.359040	229.728000	44.611000	0.221180	0.000000	-1.422010	-19.283900	-1.945050	4.807680	3.118410	183.826000	-36.311600	0.209101	0.000000	-0.969120	12.112400	-2.364920	2.164610
0.955000	-9.046450	229.213000	45.260400	0.222712	0.000000	-1.420800	-19.528300	-1.844010	5.196880	1.321610	193.373000	-37.345300	0.212955	0.000000	-0.971004	13.133100	-2.088250	2.984480
0.960000	-8.777410	231.572000	46.349400	0.223437	0.000000	-1.421530	-19.562400	-1.796740	5.433520	-1.380350	201.819000	-38.613900	0.216864	0.000000	-0.971117	13.765600	-1.943230	3.917870
0.965000	-7.853910	236.280000	48.938700	0.224767	0.000000	-1.420880	-20.117900	-1.732250	5.882640	-3.654740	209.661000	-39.601300	0.221008	0.000000	-0.972810	14.684800	-1.681990	4.927640
0.970000	-7.194640	240.654000	50.418000	0.226535	0.000000	-1.421480	-20.347700	-1.661670	6.445250	-5.248730	216.259000	-40.598100	0.224254	0.000000	-0.974117	15.450200	-1.544150	5.789980
0.975000	-6.397380	241.750000	51.240200	0.227478	0.000000	-1.420520	-20.675700	-1.537260	6.731230	-6.228720	223.055000	-42.119300	0.226223	0.000000	-0.973930	15.904500	-1.431310	6.411520
0.980000	-5.499720	243.184000	51.694700	0.227751	0.000000	-1.420810	-20.730800	-1.322350	6.872070	-6.262060	227.075000	-43.717400	0.226634	0.000000	-0.975719	16.595700	-1.395480	6.628460
0.985000	-5.757390	243.997000	51.589800	0.228740	0.000000	-1.419050	-21.232400	-1.279220	7.161280	-5.084060	227.908000	-44.265600	0.228344	0.000000	-0.976382	16.794000	-1.499860	7.067340
0.990000	-6.861640	242.014000	51.151300	0.229362	0.000000	-1.419950	-20.850900	-1.197240	7.295310	-3.671000	232.508000	-45.624300	0.229188	0.000000	-0.974598	16.697500	-1.599650	7.413130
0.995000	-7.794970	243.674000	51.097700	0.230418	0.000000	-1.421530	-20.616200	-1.198290	7.624930	-2.148490	235.719000	-46.080600	0.228430	0.000000	-0.976660	17.392900	-1.804590	7.341340
1.000000	-8.688720	246.766000	51.262200	0.229621	0.000000	-1.420130	-21.226200	-1.235980	7.523080	-1.496720	236.930000	-46.532900	0.228702	0.000000	-0.976000	17.316700	-1.865740	7.450550
1.005000	-8.646620	249.699000	51.560900	0.230553	0.000000	-1.421120	-21.230900	-1.258310	7.845990	-0.281813	242.009000	-47.726500	0.227644	0.000000	-0.975009	17.430900	-2.093380	7.367160
1.010000	-8.686160	254.612000	53.312800	0.231884	0.000000	-1.420270	-21.868300	-1.252190	8.367760	0.544598	243.614000	-48.740400	0.227654	0.000000	-0.975915	17.755100	-2.241200	7.446930
1.015000	-8.460730	261.556000	54.180900	0.232546	0.000000	-1.419960	-22.545900	-1.219840	8.776030	0.934227	244.796000	-49.858800	0.227704	0.000000	-0.976764	18.043000	-2.366490	7.531020
1.020000	-7.952450	265.217000	55.171000	0.232342	0.000000	-1.419790	-22.904600	-1.144860	8.853320	2.314870	245.969000	-50.910600	0.226403	0.000000	-0.976843	18.128600	-2.498680	7.254370
1.025000	-7.429280	266.487000	54.813700	0.232686	0.000000	-1.418750	-23.288900	-1.050560	8.996080	2.901030	249.226000	-52.280100	0.225943	0.000000	-0.976035	18.159700	-2.517780	7.233770
1.030000	-7.548150	270.068000	55.437300	0.231669	0.000000	-1.420510	-23.125600	-1.033080	8.833430	4.068200	255.441000	-53.798400	0.226740	0.000000	-0.976119	18.617400	-2.645010	7.627910
1.035000	-7.380490	268.671000	54.715900	0.231980	0.000000	-1.420230	-23.082300	-0.973246	8.879130	3.979820	259.989000	-54.772900	0.226382	0.000000	-0.976692	19.099900	-2.709860	7.672460
1.040000	-7.514380	266.336000	54.080400	0.232210	0.000000	-1.420450	-22.826600	-0.882068	8.883750	3.610760	266.922000	-56.687200	0.227230	0.000000	-0.976997	19.697400	-2.712910	8.115550
1.045000	-7.793260	264.156000	53.886100	0.231286	0.000000	-1.419370	-22.931000	-0.733514	8.596450	2.627320	272.704000	-56.518600	0.226909	0.000000	-0.975480	19.725900	-2.783090	8.190770
1.050000	-7.829640	260.889000	52.816100	0.231019	0.000000	-1.418970	-22.749200	-0.823645	8.395250	1.197430	275.963000	-56.837200	0.227893	0.000000	-0.976876	20.368900	-2.705750	8.562930
1.055000	-7.276020	259.578000	52.080600	0.231130	0.000000	-1.420270	-22.294100	-0.769870	8.376590	0.548403	280.588000	-56.375000	0.228342	0.000000	-0.976150	20.516600	-2.707240	8.809460
1.060000	-6.645260	259.535000	52.115100	0.230076	0.000000	-1.419950	-22.369500	-0.694602	8.095810	-0.205568	280.703000	-56.412000	0.228432	0.000000	-0.976987	20.771700	-2.712240	8.851290
1.065000	-5.901330	258.618000	51.732400	0.229846	0.000000	-1.420530	-22.136700	-0.593876	8.009630	0.123598	284.032000	-56.529200	0.227998	0.000000	-0.977033	21.025700	-2.818300	8.826480
1.070000	-6.225270	260.341000	50.818500	0.229340	0.000000	-1.419870	-22.458700	-0.545244	7.927610	0.083782	287.580000	-56.265600	0.228475	0.000000	-0.977271	21.357500	-2.872850	9.063150
1.075000	-5.750180	261.288000	50.509400	0.229403	0.000000	-1.420850	-22.280800	-0.482600	7.971030	-0.092317	291.706000	-56.919300	0.228455	0.000000	-0.977047	21.601500	-2.973040	9.198120
1.080000	-6.138220	263.882000	49.391000	0.228922	0.000000	-1.420870	-22.500000	-0.460602	7.911030	-0.295730	295.583000	-57.207300	0.228617	0.000000	-0.976968	21.868300	-2.939640	9.348780
1.085000	-6.050130	266.897000	48.273100	0.228827	0.000000	-1.421370	-22.620400	-0.410353	7.963930	-0.053112	296.127000	-57.511600	0.228910	0.000000	-0.977328	22.011300	-2.939010	9.455500
1.090000	-6.454620	266.300000	47.916200	0.229390	0.000000	-1.420840	-22.714200	-0.456531	8.096580	-0.429219	298.760000	-57.009800	0.228836	0.000000	-0.977127	22.152800	-2.947060	9.497290
1.095000	-6.964240	270.403000	47.803000	0.229329	0.000000	-1.420650	-23.118900	-0.398640	8.213020	-1.163660	298.867000	-56.824700	0.228900	0.000000	-0.976769	22.065400	-2.992940	9.534880
1.100000	-7.559630	272.352000	47.388800	0.229188	0.000000	-1.420150	-23.425900	-0.440693	8.226230	-1.324840	299.030000	-56.718000	0.229319	0.000000	-0.976947	22.133200	-2.967760	9.664200
1.105000	-7.861920	272.893000	47.317600	0.229071	0.000000	-1.420100	-23.487200	-0.471660	8.207020	-1.116670	300.970000	-55.989200	0.228591	0.000000	-0.976996	22.288100	-3.057260	9.486850
1.110000	-8.381680	275.678000	47.427400	0.228296	0.000000	-1.420720	-23.556100	-0.505900	8.067420	-1.200340	305.253000	-55.864000	0.228226	0.000000	-0.976292	22.392100	-3.260390	9.517370
1.115000	-8.363620	275.317000	46.999900	0.228229	0.000000	-1.420880	-23.482000	-0.446512	8.043570	-1.963960	303.157000	-55.445700	0.228859	0.000000	-0.977070	22.487400	-3.275400	9.667200
1.120000	-8.956310	275.196000	46.643600	0.227407	0.000000	-1.420950	-23.456800	-0.420988	7.816850	-2.482710	303.109000	-54.849500	0.228506	0.000000	-0.977097	22.500800	-3.309910	9.555540
1.125000	-9.852520	275.669000	46.237800	0.227612	0.000000	-1.421080	-23.469500	-0.416281	7.896560	-2.837170	303.202000	-53.660800	0.228161	0.000000	-0.976149	22.226700	-3.393590	9.443140
1.130000	-10.097100	275.299000	45.364400	0.227113	0.000000	-1.421110	-23.431700	-0.441934	7.735240	-2.706950	299.820000	-53.080300	0.228493	0.000000	-0.976357	22.040600	-3.471120	9.460210
1.135000	-10.586000	276.623000	44.853600	0.226863	0.000000	-1.421580	-23.415900	-0.438072	7.700240	-3.803950	297.648000	-51.747200	0.227651	0.000000	-0.975413	21.619900	-3.474520	9.130840
1.140000	-12.223400	276.619000	43.303200	0.227148	0.000000	-1.421840	-23.356100	-0.469471	7.781240	-3.920710	294.629000	-51.349400	0.227414	0.000000	-0.975707	21.492200	-3.602640	8.999730
1.145000	-12.750500	277.707000	43.635000	0.226717	0.000000	-1.421220	-23.632000	-0.328924	7.720890	-3.990690	292.256000	-50.650400	0.227834	0.000000	-0.975413	21.235600	-3.606710	9.054170
1.150000	-13.012300	279.533000	43.583100	0.226276	0.000000	-1.422550	-23.416000	-0.312566	7.644220	-3.953940	295.144000	-50.216700	0.227275	0.000000	-0.976079	21.642400	-3.833930	8.984440
1.155000	-12.949600	281.366000	43.651900	0.225703	0.000000	-1.423110	-23.415800	-0.184676	7.543920	-3.753980	293.705000	-50.069100	0.228119	0.000000	-0.976989	21.801200	-3.796200	9.193220
